<?xml version="1.0" standalone="no"?>
<!DOCTYPE svg PUBLIC "-//W3C//DTD SVG 20010904//EN"
 "http://www.w3.org/TR/2001/REC-SVG-20010904/DTD/svg10.dtd">
<svg version="1.0" xmlns="http://www.w3.org/2000/svg"
 width="1000.000000pt" height="600.000000pt" viewBox="0 0 1000.000000 600.000000"
 preserveAspectRatio="xMidYMid meet">

<g transform="translate(0.000000,600.000000) scale(0.100000,-0.100000)"
fill="#000000" stroke="none">
<path d="M4755 5260 c-128 -18 -237 -41 -350 -72 -38 -10 -79 -21 -90 -23 -11
-3 -49 -16 -84 -30 -36 -14 -68 -25 -73 -25 -17 0 -326 -155 -378 -190 -30
-20 -82 -54 -115 -75 -169 -108 -444 -373 -570 -549 -11 -16 -25 -33 -31 -40
-16 -17 -97 -137 -115 -171 -62 -114 -78 -143 -93 -170 -30 -54 -107 -241
-119 -290 -3 -11 -18 -58 -35 -105 -32 -92 -81 -317 -86 -402 -33 -511 -4
-740 149 -1178 9 -25 22 -59 30 -76 8 -16 28 -59 44 -95 50 -108 155 -289 203
-350 14 -19 50 -65 79 -104 94 -126 293 -326 414 -416 44 -33 89 -68 100 -78
58 -52 344 -211 465 -258 230 -89 464 -155 599 -168 208 -21 267 -25 365 -25
61 0 151 5 199 10 48 6 114 12 147 15 33 2 97 14 142 26 45 11 94 22 108 24
24 3 194 57 235 74 11 5 36 15 55 21 111 40 306 139 414 211 32 21 60 39 63
39 6 0 64 44 173 132 138 111 262 234 363 362 26 34 53 68 60 76 7 8 39 56 72
105 161 245 270 494 339 778 60 243 68 316 69 582 0 242 -9 338 -48 495 -8 30
-17 71 -20 90 -9 50 -75 263 -86 275 -5 5 -9 17 -9 26 0 31 -200 422 -230 449
-3 3 -27 38 -54 78 -26 40 -56 81 -65 90 -9 9 -53 60 -98 112 -84 99 -183 197
-268 265 -28 22 -54 45 -60 51 -13 15 -218 154 -275 187 -156 90 -388 190
-535 233 -92 26 -329 74 -443 89 -150 20 -405 18 -557 -5z m525 -125 c189 -21
307 -48 515 -117 341 -113 641 -303 900 -569 130 -134 145 -151 230 -264 58
-76 164 -258 231 -395 38 -79 109 -283 144 -413 92 -345 88 -818 -11 -1152
-123 -420 -303 -727 -602 -1027 -278 -278 -582 -462 -982 -592 -142 -46 -499
-96 -685 -96 -148 0 -428 42 -625 94 -180 47 -456 180 -665 319 -150 100 -335
268 -483 437 -147 169 -329 493 -416 740 -73 209 -121 507 -121 751 1 201 36
449 91 644 23 80 54 166 69 192 5 10 32 70 60 133 117 266 273 483 506 704
168 159 312 259 547 380 239 122 548 212 812 235 159 13 339 12 485 -4z"/>
<path d="M5007 4212 c-3 -27 -33 -160 -66 -294 -105 -425 -101 -518 25 -518
41 0 44 2 44 28 0 16 -8 32 -20 40 -13 8 -20 23 -20 42 0 19 7 34 20 42 19 12
20 25 22 223 l3 210 2 -207 c3 -206 4 -208 28 -232 30 -30 32 -51 5 -73 -11
-10 -20 -30 -20 -45 0 -26 3 -28 43 -28 80 0 107 62 87 200 -13 91 -55 281
-81 370 -11 36 -30 116 -43 179 -23 114 -23 114 -29 63z"/>
<path d="M4815 4233 c-74 -7 -271 -52 -346 -79 -101 -36 -154 -64 -223 -117
-78 -61 -116 -107 -159 -194 -67 -131 -71 -278 -15 -448 31 -92 90 -216 130
-271 71 -98 117 -152 192 -228 88 -90 129 -150 168 -251 20 -51 23 -77 22
-175 -1 -107 -3 -121 -36 -202 -59 -145 -157 -273 -310 -405 -47 -42 -166
-123 -181 -124 -7 -1 6 -5 28 -8 44 -8 359 -16 610 -16 l160 0 33 69 c73 151
92 333 52 490 -22 87 -82 221 -131 293 -48 70 -154 190 -223 253 -118 105
-195 190 -235 257 -107 184 -108 391 -2 503 74 78 233 129 404 130 58 0 77 3
77 14 0 15 68 460 75 494 6 24 5 24 -90 15z"/>
<path d="M5220 4166 c0 -74 0 -76 28 -82 119 -25 328 -113 418 -175 73 -50
190 -165 241 -238 50 -71 92 -164 113 -251 18 -71 18 -230 1 -300 -15 -62 -73
-194 -89 -204 -6 -3 0 16 13 42 51 106 70 190 70 312 0 91 -5 129 -22 185 -80
251 -333 467 -662 564 -57 17 -105 31 -107 31 -2 0 -4 -33 -4 -74 l0 -74 43
-7 c72 -13 220 -69 302 -115 116 -66 230 -183 283 -292 93 -187 94 -387 3
-566 -12 -23 -23 -42 -24 -42 -2 0 10 39 26 87 79 236 27 475 -141 647 -107
109 -216 173 -386 225 -106 33 -106 32 -106 -44 0 -52 3 -65 15 -65 9 0 65
-21 126 -46 278 -117 434 -287 463 -504 11 -78 -11 -187 -54 -275 -66 -133
-82 -143 -42 -24 51 149 55 257 17 376 -16 47 -46 112 -67 143 -74 111 -221
214 -387 271 -30 11 -58 19 -63 19 -4 0 -8 -31 -8 -69 0 -67 1 -69 28 -76 43
-10 186 -80 234 -113 103 -72 177 -163 208 -258 40 -120 12 -305 -61 -394 -14
-18 -18 -19 -11 -5 20 42 42 117 52 179 12 76 -3 171 -41 251 -30 63 -142 173
-218 214 -55 29 -162 71 -183 71 -4 0 -8 -31 -8 -69 0 -65 1 -69 25 -75 46
-12 150 -80 203 -133 32 -32 65 -78 83 -118 27 -56 31 -77 31 -148 0 -119 -34
-200 -122 -287 -92 -92 -205 -147 -345 -170 -49 -7 -36 -8 70 -5 340 12 640
138 816 343 52 61 127 210 149 298 41 159 21 354 -52 521 -137 316 -439 535
-810 588 l-48 7 0 -76z"/>
<path d="M4901 4074 c0 -11 3 -14 6 -6 3 7 2 16 -1 19 -3 4 -6 -2 -5 -13z"/>
<path d="M4886 3965 c-9 -26 -7 -32 5 -12 6 10 9 21 6 23 -2 3 -7 -2 -11 -11z"/>
<path d="M4440 3624 c-52 -29 -87 -60 -102 -89 -6 -11 9 -1 32 23 24 24 64 54
90 67 25 13 41 24 35 24 -5 1 -30 -11 -55 -25z"/>
<path d="M6171 3305 c-4 -219 -78 -394 -231 -544 -104 -102 -167 -143 -305
-198 -38 -15 -72 -30 -75 -33 -3 -3 -12 -6 -20 -7 -8 -1 -51 -11 -95 -23 -44
-11 -92 -20 -107 -20 -16 0 -28 -4 -28 -9 0 -8 29 -7 85 3 17 4 41 8 55 11 55
10 117 28 157 46 24 10 45 19 48 19 2 0 30 12 62 26 87 40 184 107 178 123 -5
12 -3 12 12 0 10 -9 14 -9 10 -2 -5 8 1 15 17 19 17 4 23 11 19 22 -4 9 -2 13
4 9 6 -4 23 11 38 32 14 22 33 42 41 45 8 3 14 12 14 19 0 8 7 20 15 27 8 7
12 16 9 21 -3 5 -1 9 3 9 11 0 61 96 68 130 2 14 11 48 19 76 18 66 25 164 16
234 -7 51 -7 49 -9 -35z"/>
<path d="M4830 3355 c-18 -21 -2 -74 25 -87 21 -9 24 -19 29 -92 3 -44 7 -229
10 -409 2 -194 8 -333 14 -340 5 -7 22 -50 38 -97 25 -77 28 -98 28 -230 0
-130 -3 -153 -27 -225 l-26 -79 19 -31 c34 -55 107 -72 151 -36 22 18 22 19 4
15 -24 -5 -35 2 -58 38 -25 39 -21 58 18 101 19 21 35 45 35 54 0 8 14 31 30
50 l30 34 0 219 0 220 -66 0 c-62 0 -65 1 -62 23 3 19 11 23 61 28 32 4 61 10
65 13 3 4 8 171 10 371 l4 363 24 11 c31 14 42 56 19 80 -15 17 -34 19 -190
20 -138 0 -175 -3 -185 -14z"/>
<path d="M5793 3090 c0 -36 2 -50 4 -32 2 17 2 47 0 65 -2 17 -4 3 -4 -33z"/>
<path d="M5268 2423 c7 -3 16 -2 19 1 4 3 -2 6 -13 5 -11 0 -14 -3 -6 -6z"/>
<path d="M5596 2373 c-36 -58 -36 -58 -14 -65 13 -3 42 -6 66 -7 52 -1 64 -13
165 -160 39 -58 82 -119 94 -136 12 -16 54 -78 94 -137 l72 -108 47 0 c46 0
47 1 73 48 l27 49 -120 169 c-173 243 -200 281 -247 346 l-43 58 -89 0 -88 0
-37 -57z"/>
<path d="M5492 2230 l-32 -50 47 0 c54 0 50 3 168 -155 33 -45 90 -122 127
-172 l68 -90 81 -7 c45 -4 83 -5 85 -3 5 4 -52 89 -181 272 -47 66 -104 148
-126 181 -40 59 -43 62 -93 68 -102 12 -108 10 -144 -44z"/>
<path d="M5392 2089 c-86 -110 -86 -91 9 -212 l84 -106 169 0 c133 -1 166 2
158 12 -23 28 -135 185 -159 222 -14 22 -43 64 -65 93 -40 51 -41 52 -94 52
l-54 0 -48 -61z"/>
<path d="M5170 2023 c0 -5 -14 -24 -30 -43 -36 -43 -37 -50 -5 -50 18 0 35
-14 64 -52 91 -120 73 -108 163 -108 77 0 80 1 67 19 -8 10 -50 69 -94 130
l-79 111 -43 0 c-24 0 -43 -3 -43 -7z"/>
<path d="M5071 1875 c-36 -41 -36 -45 -15 -86 l15 -31 77 7 c42 4 78 8 79 9 5
4 -110 136 -117 136 -5 0 -22 -16 -39 -35z"/>
<path d="M6211 1799 c-25 -41 -29 -67 -7 -47 8 7 12 15 10 17 -2 2 1 10 7 18
6 7 8 13 3 13 -5 0 -2 4 6 10 8 5 11 12 8 16 -4 3 -16 -9 -27 -27z"/>
<path d="M4909 1773 c-1 -5 -1 -11 0 -15 0 -5 -3 -8 -7 -8 -5 0 -14 -12 -21
-27 l-11 -28 22 29 c21 27 32 56 22 56 -2 0 -5 -3 -5 -7z"/>
<path d="M6216 1739 c-14 -11 -31 -30 -37 -42 -7 -14 4 -7 30 18 22 21 41 40
41 42 0 7 -8 2 -34 -18z"/>
<path d="M5120 1736 c0 -11 7 -13 33 -6 17 5 41 11 52 13 11 3 -4 5 -32 6 -40
1 -53 -3 -53 -13z"/>
<path d="M5363 1743 c15 -2 37 -2 50 0 12 2 0 4 -28 4 -27 0 -38 -2 -22 -4z"/>
<path d="M5608 1743 c34 -2 90 -2 125 0 34 2 6 3 -63 3 -69 0 -97 -1 -62 -3z"/>
</g>
</svg>
